{"title":"The Ultimate Fighter Nations Canada vs Australia S01E11","uid":9836067,"size":356433335,"categoryP":"video","categoryS":"tv_shows","magnet":"?xt=urn:btih:502a26ba654c8ba831b6b79b7043d46cef99b052&amp;dn=The+Ultimate+Fighter+Nations+Canada+vs+Australia+S01E11&amp;tr=udp%3A%2F%2Ftracker.openbittorrent.com%3A80&amp;tr=udp%3A%2F%2Fopen.demonii.com%3A1337&amp;tr=udp%3A%2F%2Ftracker.coppersurfer.tk%3A6969&amp;tr=udp%3A%2F%2Fexodus.desync.com%3A6969","seeders":5,"leechers":0,"uploader":"Pyre8Storm","files":-1,"time":1395913911,"description":"Nothing special on the quality side of things but it should be ok.\n\n\n\nFormat                                   : MPEG-4\nFormat profile                           : Base Media\nCodec ID                                 : isom\nFile size                                : 340 MiB\nDuration                                 : 42mn 3s\nOverall bit rate mode                    : Variable\nOverall bit rate                         : 1 130 Kbps\nWriting application                      : Lavf53.24.0\n\nVideo\nID                                       : 1\nFormat                                   : AVC\nFormat/Info                              : Advanced Video Codec\nFormat profile                           : &lt;a class=&quot;__cf_email__&quot; href=&quot;/cdn-cgi/l/email-protection&quot; data-cfemail=&quot;6c24050b042c2058425d&quot;&gt;[email&amp;#160;protected]&lt;/a&gt;&lt;script cf-hash='f9e31' type=&quot;text/javascript&quot;&gt;\n/* &lt;![CDATA[ */!function(){try{var t=&quot;currentScript&quot;in document?document.currentScript:function(){for(var t=document.getElementsByTagName(&quot;script&quot;),e=t.length;e--;)if(t[e].getAttribute(&quot;cf-hash&quot;))return t[e]}();if(t&amp;&amp;t.previousSibling){var e,r,n,i,c=t.previousSibling,a=c.getAttribute(&quot;data-cfemail&quot;);if(a){for(e=&quot;&quot;,r=parseInt(a.substr(0,2),16),n=2;a.length-n;n+=2)i=parseInt(a.substr(n,2),16)^r,e+=String.fromCharCode(i);e=document.createTextNode(e),c.parentNode.replaceChild(e,c)}}}catch(u){}}();/* ]]&gt; */&lt;/script&gt;\nFormat settings, CABAC                   : Yes\nFormat settings, ReFrames                : 4 frames\nCodec ID                                 : avc1\nCodec ID/Info                            : Advanced Video Coding\nDuration                                 : 42mn 3s\nBit rate                                 : 1 040 Kbps\nWidth                                    : 800 pixels\nHeight                                   : 450 pixels\nDisplay aspect ratio                     : 16:9\nFrame rate mode                          : Constant\nFrame rate                               : 25.000 fps\nColor space                              : YUV\nChroma subsampling                       : 4:2:0\nBit depth                                : 8 bits\nScan type                                : Progressive\nBits/(Pixel*Frame)                       : 0.116\nStream size                              : 313 MiB (92%)\nWriting library                          : x264 core 119 r2106 07efeb4\n\nAudio\nID                                       : 2\nFormat                                   : AAC\nFormat/Info                              : Advanced Audio Codec\nFormat profile                           : LC\nCodec ID                                 : 40\nDuration                                 : 42mn 3s\nBit rate mode                            : Variable\nBit rate                                 : 85.4 Kbps\nMaximum bit rate                         : 128 Kbps\nChannel(s)                               : 2 channels\nChannel positions                        : Front: L R\nSampling rate                            : 48.0 KHz\nCompression mode                         : Lossy\nStream size                              : 25.7 MiB (8%)\n\n\nPlease seed for others","torrent":{"xt":"urn:btih:502a26ba654c8ba831b6b79b7043d46cef99b052","amp;dn":"The+Ultimate+Fighter+Nations+Canada+vs+Australia+S01E11","amp;tr":["udp%3A%2F%2Ftracker.openbittorrent.com%3A80","udp%3A%2F%2Fopen.demonii.com%3A1337","udp%3A%2F%2Ftracker.coppersurfer.tk%3A6969","udp%3A%2F%2Fexodus.desync.com%3A6969"],"infoHash":"502a26ba654c8ba831b6b79b7043d46cef99b052","infoHashBuffer":{"type":"Buffer","data":[80,42,38,186,101,76,139,168,49,182,183,155,112,67,212,108,239,153,176,82]},"announce":[],"urlList":[]}}